<svg width="1506" height="83" viewBox="0 0 1506 83" fill="none" xmlns="http://www.w3.org/2000/svg">
<rect width="138" height="83" fill="#D9D9D9"/>
<path d="M80.2942 56.5116H54.927C53.3104 56.5116 52 54.8006 52 52.6899V29.7593C52 27.6485 53.3104 25.9375 54.927 25.9375H80.2942C81.9108 25.9375 83.2212 27.6485 83.2212 29.7593V52.6899C83.2212 54.8006 81.9108 56.5116 80.2942 56.5116ZM58.8296 30.3962C56.9437 30.3962 55.4148 32.3925 55.4148 34.8549C55.4148 37.3174 56.9437 39.3137 58.8296 39.3137C60.7156 39.3137 62.2445 37.3174 62.2445 34.8549C62.2445 32.3925 60.7156 30.3962 58.8296 30.3962ZM55.9027 51.4159H79.3186V42.4985L73.982 35.5305C73.6963 35.1574 73.2329 35.1574 72.9471 35.5305L64.6836 46.3202L61.2984 41.9001C61.0126 41.527 60.5493 41.527 60.2635 41.9001L55.9027 47.5942V51.4159Z" fill="black"/>
<rect x="196" width="138" height="83" fill="#D9D9D9"/>
<path d="M276.294 56.5116H250.927C249.31 56.5116 248 54.8006 248 52.6899V29.7593C248 27.6485 249.31 25.9375 250.927 25.9375H276.294C277.911 25.9375 279.221 27.6485 279.221 29.7593V52.6899C279.221 54.8006 277.911 56.5116 276.294 56.5116ZM254.83 30.3962C252.944 30.3962 251.415 32.3925 251.415 34.8549C251.415 37.3174 252.944 39.3137 254.83 39.3137C256.716 39.3137 258.244 37.3174 258.244 34.8549C258.244 32.3925 256.716 30.3962 254.83 30.3962ZM251.903 51.4159H275.319V42.4985L269.982 35.5305C269.696 35.1574 269.233 35.1574 268.947 35.5305L260.684 46.3202L257.298 41.9001C257.013 41.527 256.549 41.527 256.264 41.9001L251.903 47.5942V51.4159Z" fill="black"/>
<rect x="392" width="138" height="83" fill="#D9D9D9"/>
<path d="M472.294 56.5116H446.927C445.31 56.5116 444 54.8006 444 52.6899V29.7593C444 27.6485 445.31 25.9375 446.927 25.9375H472.294C473.911 25.9375 475.221 27.6485 475.221 29.7593V52.6899C475.221 54.8006 473.911 56.5116 472.294 56.5116ZM450.83 30.3962C448.944 30.3962 447.415 32.3925 447.415 34.8549C447.415 37.3174 448.944 39.3137 450.83 39.3137C452.716 39.3137 454.244 37.3174 454.244 34.8549C454.244 32.3925 452.716 30.3962 450.83 30.3962ZM447.903 51.4159H471.319V42.4985L465.982 35.5305C465.696 35.1574 465.233 35.1574 464.947 35.5305L456.684 46.3202L453.298 41.9001C453.013 41.527 452.549 41.527 452.264 41.9001L447.903 47.5942V51.4159Z" fill="black"/>
<rect x="588" width="138" height="83" fill="#D9D9D9"/>
<path d="M668.294 56.5116H642.927C641.31 56.5116 640 54.8006 640 52.6899V29.7593C640 27.6485 641.31 25.9375 642.927 25.9375H668.294C669.911 25.9375 671.221 27.6485 671.221 29.7593V52.6899C671.221 54.8006 669.911 56.5116 668.294 56.5116ZM646.83 30.3962C644.944 30.3962 643.415 32.3925 643.415 34.8549C643.415 37.3174 644.944 39.3137 646.83 39.3137C648.716 39.3137 650.244 37.3174 650.244 34.8549C650.244 32.3925 648.716 30.3962 646.83 30.3962ZM643.903 51.4159H667.319V42.4985L661.982 35.5305C661.696 35.1574 661.233 35.1574 660.947 35.5305L652.684 46.3202L649.298 41.9001C649.013 41.527 648.549 41.527 648.264 41.9001L643.903 47.5942V51.4159Z" fill="black"/>
<rect x="784" width="138" height="83" fill="#D9D9D9"/>
<path d="M864.294 56.5116H838.927C837.31 56.5116 836 54.8006 836 52.6899V29.7593C836 27.6485 837.31 25.9375 838.927 25.9375H864.294C865.911 25.9375 867.221 27.6485 867.221 29.7593V52.6899C867.221 54.8006 865.911 56.5116 864.294 56.5116ZM842.83 30.3962C840.944 30.3962 839.415 32.3925 839.415 34.8549C839.415 37.3174 840.944 39.3137 842.83 39.3137C844.716 39.3137 846.244 37.3174 846.244 34.8549C846.244 32.3925 844.716 30.3962 842.83 30.3962ZM839.903 51.4159H863.319V42.4985L857.982 35.5305C857.696 35.1574 857.233 35.1574 856.947 35.5305L848.684 46.3202L845.298 41.9001C845.013 41.527 844.549 41.527 844.264 41.9001L839.903 47.5942V51.4159Z" fill="black"/>
<rect x="980" width="138" height="83" fill="#D9D9D9"/>
<path d="M1060.29 56.5116H1034.93C1033.31 56.5116 1032 54.8006 1032 52.6899V29.7593C1032 27.6485 1033.31 25.9375 1034.93 25.9375H1060.29C1061.91 25.9375 1063.22 27.6485 1063.22 29.7593V52.6899C1063.22 54.8006 1061.91 56.5116 1060.29 56.5116ZM1038.83 30.3962C1036.94 30.3962 1035.41 32.3925 1035.41 34.8549C1035.41 37.3174 1036.94 39.3137 1038.83 39.3137C1040.72 39.3137 1042.24 37.3174 1042.24 34.8549C1042.24 32.3925 1040.72 30.3962 1038.83 30.3962ZM1035.9 51.4159H1059.32V42.4985L1053.98 35.5305C1053.7 35.1574 1053.23 35.1574 1052.95 35.5305L1044.68 46.3202L1041.3 41.9001C1041.01 41.527 1040.55 41.527 1040.26 41.9001L1035.9 47.5942V51.4159Z" fill="black"/>
<rect x="1174" width="138" height="83" fill="#D9D9D9"/>
<path d="M1254.29 56.5116H1228.93C1227.31 56.5116 1226 54.8006 1226 52.6899V29.7593C1226 27.6485 1227.31 25.9375 1228.93 25.9375H1254.29C1255.91 25.9375 1257.22 27.6485 1257.22 29.7593V52.6899C1257.22 54.8006 1255.91 56.5116 1254.29 56.5116ZM1232.83 30.3962C1230.94 30.3962 1229.41 32.3925 1229.41 34.8549C1229.41 37.3174 1230.94 39.3137 1232.83 39.3137C1234.72 39.3137 1236.24 37.3174 1236.24 34.8549C1236.24 32.3925 1234.72 30.3962 1232.83 30.3962ZM1229.9 51.4159H1253.32V42.4985L1247.98 35.5305C1247.7 35.1574 1247.23 35.1574 1246.95 35.5305L1238.68 46.3202L1235.3 41.9001C1235.01 41.527 1234.55 41.527 1234.26 41.9001L1229.9 47.5942V51.4159Z" fill="black"/>
<rect x="1368" width="138" height="83" fill="#D9D9D9"/>
<path d="M1448.29 56.5116H1422.93C1421.31 56.5116 1420 54.8006 1420 52.6899V29.7593C1420 27.6485 1421.31 25.9375 1422.93 25.9375H1448.29C1449.91 25.9375 1451.22 27.6485 1451.22 29.7593V52.6899C1451.22 54.8006 1449.91 56.5116 1448.29 56.5116ZM1426.83 30.3962C1424.94 30.3962 1423.41 32.3925 1423.41 34.8549C1423.41 37.3174 1424.94 39.3137 1426.83 39.3137C1428.72 39.3137 1430.24 37.3174 1430.24 34.8549C1430.24 32.3925 1428.72 30.3962 1426.83 30.3962ZM1423.9 51.4159H1447.32V42.4985L1441.98 35.5305C1441.7 35.1574 1441.23 35.1574 1440.95 35.5305L1432.68 46.3202L1429.3 41.9001C1429.01 41.527 1428.55 41.527 1428.26 41.9001L1423.9 47.5942V51.4159Z" fill="black"/>
</svg>
