<svg width="510" height="184" viewBox="0 0 510 184" fill="none" xmlns="http://www.w3.org/2000/svg">
<rect x="255" y="0.5" width="255" height="182.723" fill="#D9D9D9"/>
<path d="M392.484 101.668H371.883C370.57 101.668 369.506 100.596 369.506 99.2746V84.9155C369.506 83.5937 370.57 82.5223 371.883 82.5223H392.484C393.796 82.5223 394.861 83.5937 394.861 84.9155V99.2746C394.861 100.596 393.796 101.668 392.484 101.668ZM375.052 85.3143C373.521 85.3143 372.279 86.5644 372.279 88.1064C372.279 89.6484 373.521 90.8984 375.052 90.8984C376.584 90.8984 377.825 89.6484 377.825 88.1064C377.825 86.5644 376.584 85.3143 375.052 85.3143ZM372.675 98.4768H391.691V92.8927L387.357 88.5294C387.125 88.2958 386.749 88.2958 386.517 88.5294L379.806 95.2859L377.057 92.5181C376.825 92.2844 376.449 92.2844 376.217 92.5181L372.675 96.0837V98.4768Z" fill="black"/>
<rect y="0.5" width="255" height="182.723" fill="#D9D9D9"/>
<path d="M137.484 101.668H116.883C115.57 101.668 114.506 100.596 114.506 99.2746V84.9155C114.506 83.5937 115.57 82.5223 116.883 82.5223H137.484C138.796 82.5223 139.861 83.5937 139.861 84.9155V99.2746C139.861 100.596 138.796 101.668 137.484 101.668ZM120.052 85.3143C118.521 85.3143 117.279 86.5644 117.279 88.1064C117.279 89.6484 118.521 90.8984 120.052 90.8984C121.584 90.8984 122.825 89.6484 122.825 88.1064C122.825 86.5644 121.584 85.3143 120.052 85.3143ZM117.675 98.4768H136.691V92.8927L132.357 88.5294C132.125 88.2958 131.749 88.2958 131.517 88.5294L124.806 95.2859L122.057 92.5181C121.825 92.2844 121.449 92.2844 121.217 92.5181L117.675 96.0837V98.4768Z" fill="black"/>
</svg>
