<svg width="26" height="20" viewBox="0 0 26 20" fill="none" xmlns="http://www.w3.org/2000/svg">
<path d="M22.9778 19.1455H2.37702C1.06421 19.1455 0 18.074 0 16.7523V2.39319C0 1.07145 1.06421 0 2.37702 0H22.9778C24.2906 0 25.3548 1.07145 25.3548 2.39319V16.7523C25.3548 18.074 24.2906 19.1455 22.9778 19.1455ZM5.54637 2.79205C4.01478 2.79205 2.77318 4.04209 2.77318 5.5841C2.77318 7.12611 4.01478 8.37615 5.54637 8.37615C7.07796 8.37615 8.31955 7.12611 8.31955 5.5841C8.31955 4.04209 7.07796 2.79205 5.54637 2.79205ZM3.16935 15.9546H22.1855V10.3705L17.8516 6.00714C17.6196 5.77351 17.2433 5.77351 17.0112 6.00714L10.3004 12.7637L7.55123 9.99579C7.31918 9.76215 6.94291 9.76215 6.71081 9.99579L3.16935 13.5614V15.9546Z" fill="black"/>
</svg>
