<svg width="14" height="14" viewBox="0 0 14 14" fill="none" xmlns="http://www.w3.org/2000/svg">
<path d="M11.7892 0.842163C12.1521 0.842163 12.5002 0.986336 12.7568 1.24296C13.0134 1.49959 13.1576 1.84766 13.1576 2.21058V11.7895C13.1576 12.1525 13.0134 12.5005 12.7568 12.7572C12.5002 13.0138 12.1521 13.158 11.7892 13.158H2.21022C1.84729 13.158 1.49923 13.0138 1.2426 12.7572C0.985969 12.5005 0.841797 12.1525 0.841797 11.7895V2.21058C0.841797 1.84766 0.985969 1.49959 1.2426 1.24296C1.49923 0.986336 1.84729 0.842163 2.21022 0.842163H11.7892ZM11.4471 11.4474V7.82111C11.4471 7.22954 11.2121 6.66219 10.7938 6.24389C10.3754 5.82559 9.80811 5.59058 9.21653 5.59058C8.63495 5.59058 7.95759 5.94637 7.62917 6.48006V5.72058H5.72022V11.4474H7.62917V8.07427C7.62917 7.54743 8.05338 7.11637 8.58022 7.11637C8.83427 7.11637 9.07791 7.21729 9.25755 7.39693C9.43719 7.57657 9.53811 7.82022 9.53811 8.07427V11.4474H11.4471ZM3.49653 4.64637C3.80139 4.64637 4.09377 4.52527 4.30933 4.3097C4.5249 4.09413 4.64601 3.80176 4.64601 3.4969C4.64601 2.86058 4.13285 2.34058 3.49653 2.34058C3.18986 2.34058 2.89575 2.46241 2.67889 2.67926C2.46204 2.89611 2.34022 3.19023 2.34022 3.4969C2.34022 4.13322 2.86022 4.64637 3.49653 4.64637ZM4.44759 11.4474V5.72058H2.55232V11.4474H4.44759Z" fill="black"/>
</svg>
