<svg width="54" height="41" viewBox="0 0 54 41" fill="none" xmlns="http://www.w3.org/2000/svg">
<path d="M48.8118 40.6708H5.0495C2.2607 40.6708 0 38.3947 0 35.5869V5.08385C0 2.27608 2.2607 0 5.0495 0H48.8118C51.6006 0 53.8613 2.27608 53.8613 5.08385V35.5869C53.8613 38.3947 51.6006 40.6708 48.8118 40.6708ZM11.7822 5.93116C8.5286 5.93116 5.89108 8.58662 5.89108 11.8623C5.89108 15.138 8.5286 17.7935 11.7822 17.7935C15.0357 17.7935 17.6732 15.138 17.6732 11.8623C17.6732 8.58662 15.0357 5.93116 11.7822 5.93116ZM6.73267 33.8923H47.1287V22.03L37.9223 12.761C37.4293 12.2647 36.63 12.2647 36.137 12.761L21.8812 27.1139L16.0411 21.2341C15.5481 20.7378 14.7489 20.7378 14.2558 21.2341L6.73267 28.8085V33.8923Z" fill="black"/>
</svg>
